<svg width="46" height="11" viewBox="0 0 46 11" fill="none" xmlns="http://www.w3.org/2000/svg">
<path opacity="0.5" d="M3.53527 4.78L3.19027 5.98H5.69527L5.35027 4.78C5.19027 4.26 5.03527 3.725 4.88527 3.175C4.74527 2.625 4.60527 2.08 4.46527 1.54H4.40527C4.26527 2.09 4.12527 2.64 3.98527 3.19C3.84527 3.73 3.69527 4.26 3.53527 4.78ZM0.250273 10L3.44527 0.189999H5.48527L8.68027 10H6.85027L6.08527 7.345H2.78527L2.02027 10H0.250273ZM9.88953 10V0.189999H13.0245C13.5345 0.189999 13.9995 0.234999 14.4195 0.324999C14.8495 0.405 15.2195 0.54 15.5295 0.73C15.8495 0.91 16.0945 1.155 16.2645 1.465C16.4445 1.775 16.5345 2.155 16.5345 2.605C16.5345 3.075 16.4145 3.51 16.1745 3.91C15.9345 4.31 15.5995 4.585 15.1695 4.735V4.795C15.7095 4.915 16.1545 5.17 16.5045 5.56C16.8645 5.94 17.0445 6.46 17.0445 7.12C17.0445 7.61 16.9495 8.035 16.7595 8.395C16.5695 8.755 16.3045 9.055 15.9645 9.295C15.6345 9.535 15.2395 9.715 14.7795 9.835C14.3195 9.945 13.8195 10 13.2795 10H9.88953ZM11.6295 4.24H12.8745C13.5645 4.24 14.0595 4.115 14.3595 3.865C14.6695 3.615 14.8245 3.28 14.8245 2.86C14.8245 2.38 14.6645 2.04 14.3445 1.84C14.0245 1.64 13.5445 1.54 12.9045 1.54H11.6295V4.24ZM11.6295 8.65H13.0995C13.8195 8.65 14.3745 8.52 14.7645 8.26C15.1545 7.99 15.3495 7.58 15.3495 7.03C15.3495 6.51 15.1595 6.135 14.7795 5.905C14.3995 5.665 13.8395 5.545 13.0995 5.545H11.6295V8.65ZM22.6497 10.18C22.0097 10.18 21.4247 10.065 20.8947 9.835C20.3647 9.595 19.9097 9.255 19.5297 8.815C19.1497 8.365 18.8547 7.825 18.6447 7.195C18.4347 6.565 18.3297 5.85 18.3297 5.05C18.3297 4.26 18.4347 3.555 18.6447 2.935C18.8547 2.305 19.1497 1.775 19.5297 1.345C19.9097 0.915 20.3647 0.585 20.8947 0.355C21.4247 0.125 22.0097 0.00999987 22.6497 0.00999987C23.2897 0.00999987 23.8747 0.125 24.4047 0.355C24.9347 0.585 25.3897 0.915 25.7697 1.345C26.1597 1.775 26.4597 2.305 26.6697 2.935C26.8797 3.555 26.9847 4.26 26.9847 5.05C26.9847 5.85 26.8797 6.565 26.6697 7.195C26.4597 7.825 26.1597 8.365 25.7697 8.815C25.3897 9.255 24.9347 9.595 24.4047 9.835C23.8747 10.065 23.2897 10.18 22.6497 10.18ZM22.6497 8.665C23.0397 8.665 23.3897 8.58 23.6997 8.41C24.0097 8.24 24.2747 8 24.4947 7.69C24.7147 7.37 24.8847 6.99 25.0047 6.55C25.1247 6.1 25.1847 5.6 25.1847 5.05C25.1847 3.95 24.9547 3.09 24.4947 2.47C24.0447 1.84 23.4297 1.525 22.6497 1.525C21.8697 1.525 21.2497 1.84 20.7897 2.47C20.3397 3.09 20.1147 3.95 20.1147 5.05C20.1147 5.6 20.1747 6.1 20.2947 6.55C20.4147 6.99 20.5847 7.37 20.8047 7.69C21.0247 8 21.2897 8.24 21.5997 8.41C21.9097 8.58 22.2597 8.665 22.6497 8.665ZM32.6221 10.18C32.0521 10.18 31.5371 10.1 31.0771 9.94C30.6271 9.77 30.2371 9.505 29.9071 9.145C29.5871 8.785 29.3371 8.325 29.1571 7.765C28.9871 7.195 28.9021 6.505 28.9021 5.695V0.189999H30.6421V5.83C30.6421 6.36 30.6871 6.81 30.7771 7.18C30.8771 7.54 31.0121 7.83 31.1821 8.05C31.3621 8.27 31.5721 8.43 31.8121 8.53C32.0521 8.62 32.3221 8.665 32.6221 8.665C32.9221 8.665 33.1971 8.62 33.4471 8.53C33.6971 8.43 33.9121 8.27 34.0921 8.05C34.2721 7.83 34.4121 7.54 34.5121 7.18C34.6121 6.81 34.6621 6.36 34.6621 5.83V0.189999H36.3271V5.695C36.3271 6.505 36.2421 7.195 36.0721 7.765C35.9021 8.325 35.6521 8.785 35.3221 9.145C35.0021 9.505 34.6121 9.77 34.1521 9.94C33.7021 10.1 33.1921 10.18 32.6221 10.18ZM40.7563 10V1.66H37.9213V0.189999H45.3313V1.66H42.4963V10H40.7563Z" fill="white"/>
</svg>
