<svg width="60" height="11" viewBox="0 0 60 11" fill="none" xmlns="http://www.w3.org/2000/svg">
<path opacity="0.5" d="M4.90365 10.18C4.08365 10.18 3.33865 9.985 2.66865 9.595C1.99865 9.205 1.46365 8.635 1.06365 7.885C0.673652 7.125 0.478652 6.205 0.478652 5.125C0.478652 4.055 0.678652 3.14 1.07865 2.38C1.48865 1.61 2.03365 1.025 2.71365 0.625C3.39365 0.215 4.14365 0.00999987 4.96365 0.00999987C5.58365 0.00999987 6.13365 0.135 6.61365 0.385C7.09365 0.634999 7.48865 0.924999 7.79865 1.255L6.86865 2.38C6.61865 2.12 6.33865 1.915 6.02865 1.765C5.72865 1.605 5.38865 1.525 5.00865 1.525C4.47865 1.525 4.00365 1.67 3.58365 1.96C3.17365 2.24 2.84865 2.645 2.60865 3.175C2.37865 3.705 2.26365 4.34 2.26365 5.08C2.26365 6.2 2.50865 7.08 2.99865 7.72C3.48865 8.35 4.14365 8.665 4.96365 8.665C5.40365 8.665 5.79365 8.575 6.13365 8.395C6.47365 8.205 6.78365 7.96 7.06365 7.66L7.99365 8.755C7.59365 9.215 7.13365 9.57 6.61365 9.82C6.10365 10.06 5.53365 10.18 4.90365 10.18ZM12.9432 10.18C12.0932 10.18 11.3432 9.975 10.6932 9.565C10.0432 9.145 9.53318 8.555 9.16318 7.795C8.80318 7.025 8.62318 6.11 8.62318 5.05C8.62318 3.99 8.80318 3.085 9.16318 2.335C9.53318 1.585 10.0432 1.01 10.6932 0.609999C11.3432 0.21 12.0932 0.00999987 12.9432 0.00999987C13.8032 0.00999987 14.5582 0.21 15.2082 0.609999C15.8582 1.01 16.3632 1.585 16.7232 2.335C17.0932 3.085 17.2782 3.99 17.2782 5.05C17.2782 6.11 17.0932 7.025 16.7232 7.795C16.3632 8.555 15.8582 9.145 15.2082 9.565C14.5582 9.975 13.8032 10.18 12.9432 10.18ZM12.9432 8.665C13.7132 8.665 14.3282 8.34 14.7882 7.69C15.2482 7.03 15.4782 6.15 15.4782 5.05C15.4782 3.95 15.2482 3.09 14.7882 2.47C14.3282 1.84 13.7132 1.525 12.9432 1.525C12.1732 1.525 11.5582 1.84 11.0982 2.47C10.6382 3.09 10.4082 3.95 10.4082 5.05C10.4082 6.15 10.6382 7.03 11.0982 7.69C11.5582 8.34 12.1732 8.665 12.9432 8.665ZM19.2406 10V0.189999H21.0256L24.0856 5.71L25.0906 7.795H25.1506C25.1106 7.295 25.0606 6.75 25.0006 6.16C24.9506 5.57 24.9256 5 24.9256 4.45V0.189999H26.5906V10H24.8056L21.7456 4.48L20.7406 2.395H20.6806C20.7206 2.915 20.7656 3.46 20.8156 4.03C20.8756 4.6 20.9056 5.16 20.9056 5.71V10H19.2406ZM31.0644 10V1.66H28.2294V0.189999H35.6394V1.66H32.8044V10H31.0644ZM38.6822 4.78L38.3372 5.98H40.8422L40.4972 4.78C40.3372 4.26 40.1822 3.725 40.0322 3.175C39.8922 2.625 39.7522 2.08 39.6122 1.54H39.5522C39.4222 2.09 39.2822 2.64 39.1322 3.19C38.9922 3.73 38.8422 4.26 38.6822 4.78ZM35.3972 10L38.5922 0.189999H40.6322L43.8272 10H41.9972L41.2322 7.345H37.9322L37.1672 10H35.3972ZM48.805 10.18C47.985 10.18 47.24 9.985 46.57 9.595C45.9 9.205 45.365 8.635 44.965 7.885C44.575 7.125 44.38 6.205 44.38 5.125C44.38 4.055 44.58 3.14 44.98 2.38C45.39 1.61 45.935 1.025 46.615 0.625C47.295 0.215 48.045 0.00999987 48.865 0.00999987C49.485 0.00999987 50.035 0.135 50.515 0.385C50.995 0.634999 51.39 0.924999 51.7 1.255L50.77 2.38C50.52 2.12 50.24 1.915 49.93 1.765C49.63 1.605 49.29 1.525 48.91 1.525C48.38 1.525 47.905 1.67 47.485 1.96C47.075 2.24 46.75 2.645 46.51 3.175C46.28 3.705 46.165 4.34 46.165 5.08C46.165 6.2 46.41 7.08 46.9 7.72C47.39 8.35 48.045 8.665 48.865 8.665C49.305 8.665 49.695 8.575 50.035 8.395C50.375 8.205 50.685 7.96 50.965 7.66L51.895 8.755C51.495 9.215 51.035 9.57 50.515 9.82C50.005 10.06 49.435 10.18 48.805 10.18ZM55.2929 10V1.66H52.4579V0.189999H59.8679V1.66H57.0329V10H55.2929Z" fill="white"/>
</svg>
