<svg width="38" height="11" viewBox="0 0 38 11" fill="none" xmlns="http://www.w3.org/2000/svg">
<path d="M0.594121 10V0.189999H2.33412V4.135H6.30912V0.189999H8.04912V10H6.30912V5.65H2.33412V10H0.594121ZM14.3504 10.18C13.7104 10.18 13.1254 10.065 12.5954 9.835C12.0654 9.595 11.6104 9.255 11.2304 8.815C10.8504 8.365 10.5554 7.825 10.3454 7.195C10.1354 6.565 10.0304 5.85 10.0304 5.05C10.0304 4.26 10.1354 3.555 10.3454 2.935C10.5554 2.305 10.8504 1.775 11.2304 1.345C11.6104 0.915 12.0654 0.585 12.5954 0.355C13.1254 0.125 13.7104 0.00999987 14.3504 0.00999987C14.9904 0.00999987 15.5754 0.125 16.1054 0.355C16.6354 0.585 17.0904 0.915 17.4704 1.345C17.8604 1.775 18.1604 2.305 18.3704 2.935C18.5804 3.555 18.6854 4.26 18.6854 5.05C18.6854 5.85 18.5804 6.565 18.3704 7.195C18.1604 7.825 17.8604 8.365 17.4704 8.815C17.0904 9.255 16.6354 9.595 16.1054 9.835C15.5754 10.065 14.9904 10.18 14.3504 10.18ZM14.3504 8.665C14.7404 8.665 15.0904 8.58 15.4004 8.41C15.7104 8.24 15.9754 8 16.1954 7.69C16.4154 7.37 16.5854 6.99 16.7054 6.55C16.8254 6.1 16.8854 5.6 16.8854 5.05C16.8854 3.95 16.6554 3.09 16.1954 2.47C15.7454 1.84 15.1304 1.525 14.3504 1.525C13.5704 1.525 12.9504 1.84 12.4904 2.47C12.0404 3.09 11.8154 3.95 11.8154 5.05C11.8154 5.6 11.8754 6.1 11.9954 6.55C12.1154 6.99 12.2854 7.37 12.5054 7.69C12.7254 8 12.9904 8.24 13.3004 8.41C13.6104 8.58 13.9604 8.665 14.3504 8.665ZM20.6478 10V0.189999H22.6128L24.3528 4.99C24.4628 5.3 24.5678 5.62 24.6678 5.95C24.7678 6.27 24.8728 6.59 24.9828 6.91H25.0428C25.1528 6.59 25.2528 6.27 25.3428 5.95C25.4428 5.62 25.5478 5.3 25.6578 4.99L27.3528 0.189999H29.3328V10H27.7278V5.515C27.7278 5.285 27.7328 5.035 27.7428 4.765C27.7628 4.495 27.7828 4.225 27.8028 3.955C27.8228 3.675 27.8478 3.405 27.8778 3.145C27.9078 2.875 27.9328 2.625 27.9528 2.395H27.8928L27.0978 4.675L25.4928 9.085H24.4578L22.8378 4.675L22.0578 2.395H21.9978C22.0178 2.625 22.0378 2.875 22.0578 3.145C22.0878 3.405 22.1128 3.675 22.1328 3.955C22.1628 4.225 22.1828 4.495 22.1928 4.765C22.2128 5.035 22.2228 5.285 22.2228 5.515V10H20.6478ZM31.8246 10V0.189999H37.7346V1.66H33.5646V4.165H37.0896V5.635H33.5646V8.53H37.8846V10H31.8246Z" fill="white"/>
</svg>
