<svg width="39" height="11" viewBox="0 0 39 11" fill="none" xmlns="http://www.w3.org/2000/svg">
<path d="M0.412969 10V0.189999H2.15297V8.53H6.23297V10H0.412969ZM11.2835 10.18C10.6435 10.18 10.0585 10.065 9.52852 9.835C8.99852 9.595 8.54352 9.255 8.16352 8.815C7.78352 8.365 7.48852 7.825 7.27852 7.195C7.06852 6.565 6.96352 5.85 6.96352 5.05C6.96352 4.26 7.06852 3.555 7.27852 2.935C7.48852 2.305 7.78352 1.775 8.16352 1.345C8.54352 0.915 8.99852 0.585 9.52852 0.355C10.0585 0.125 10.6435 0.00999987 11.2835 0.00999987C11.9235 0.00999987 12.5085 0.125 13.0385 0.355C13.5685 0.585 14.0235 0.915 14.4035 1.345C14.7935 1.775 15.0935 2.305 15.3035 2.935C15.5135 3.555 15.6185 4.26 15.6185 5.05C15.6185 5.85 15.5135 6.565 15.3035 7.195C15.0935 7.825 14.7935 8.365 14.4035 8.815C14.0235 9.255 13.5685 9.595 13.0385 9.835C12.5085 10.065 11.9235 10.18 11.2835 10.18ZM11.2835 8.665C11.6735 8.665 12.0235 8.58 12.3335 8.41C12.6435 8.24 12.9085 8 13.1285 7.69C13.3485 7.37 13.5185 6.99 13.6385 6.55C13.7585 6.1 13.8185 5.6 13.8185 5.05C13.8185 3.95 13.5885 3.09 13.1285 2.47C12.6785 1.84 12.0635 1.525 11.2835 1.525C10.5035 1.525 9.88352 1.84 9.42352 2.47C8.97352 3.09 8.74852 3.95 8.74852 5.05C8.74852 5.6 8.80852 6.1 8.92852 6.55C9.04852 6.99 9.21852 7.37 9.43852 7.69C9.65852 8 9.92352 8.24 10.2335 8.41C10.5435 8.58 10.8935 8.665 11.2835 8.665ZM21.6909 10.18C21.0309 10.18 20.4159 10.07 19.8459 9.85C19.2859 9.63 18.7959 9.305 18.3759 8.875C17.9659 8.445 17.6459 7.915 17.4159 7.285C17.1859 6.655 17.0709 5.935 17.0709 5.125C17.0709 4.325 17.1909 3.61 17.4309 2.98C17.6709 2.34 17.9959 1.8 18.4059 1.36C18.8259 0.92 19.3159 0.585 19.8759 0.355C20.4459 0.125 21.0559 0.00999987 21.7059 0.00999987C22.4059 0.00999987 22.9959 0.14 23.4759 0.399999C23.9659 0.65 24.3659 0.935 24.6759 1.255L23.7459 2.38C23.4959 2.14 23.2159 1.94 22.9059 1.78C22.6059 1.61 22.2259 1.525 21.7659 1.525C21.3259 1.525 20.9259 1.61 20.5659 1.78C20.2159 1.94 19.9109 2.175 19.6509 2.485C19.4009 2.785 19.2059 3.155 19.0659 3.595C18.9259 4.035 18.8559 4.53 18.8559 5.08C18.8559 6.2 19.1059 7.08 19.6059 7.72C20.1159 8.35 20.8659 8.665 21.8559 8.665C22.1359 8.665 22.4009 8.63 22.6509 8.56C22.9009 8.48 23.1059 8.37 23.2659 8.23V6.115H21.4059V4.69H24.8259V9.01C24.4959 9.34 24.0559 9.62 23.5059 9.85C22.9659 10.07 22.3609 10.18 21.6909 10.18ZM26.9999 10V0.189999H28.7399V10H26.9999ZM31.2333 10V0.189999H33.0183L36.0783 5.71L37.0833 7.795H37.1433C37.1033 7.285 37.0533 6.74 36.9933 6.16C36.9433 5.57 36.9183 5 36.9183 4.45V0.189999H38.5833V10H36.7983L33.7383 4.48L32.7333 2.395H32.6733C32.7133 2.915 32.7583 3.46 32.8083 4.03C32.8683 4.6 32.8983 5.16 32.8983 5.71V10H31.2333Z" fill="white"/>
</svg>
