<svg width="53" height="11" viewBox="0 0 53 11" fill="none" xmlns="http://www.w3.org/2000/svg">
<path d="M3.88912 10.18C3.22912 10.18 2.58912 10.055 1.96912 9.805C1.35912 9.555 0.81912 9.2 0.34912 8.74L1.36912 7.555C1.71912 7.885 2.11912 8.155 2.56912 8.365C3.01912 8.565 3.46912 8.665 3.91912 8.665C4.47912 8.665 4.90412 8.55 5.19412 8.32C5.48412 8.09 5.62912 7.785 5.62912 7.405C5.62912 7.205 5.58912 7.035 5.50912 6.895C5.43912 6.755 5.33412 6.635 5.19412 6.535C5.06412 6.425 4.90412 6.325 4.71412 6.235C4.53412 6.145 4.33412 6.055 4.11412 5.965L2.76412 5.38C2.52412 5.28 2.28412 5.155 2.04412 5.005C1.81412 4.855 1.60412 4.675 1.41412 4.465C1.22412 4.255 1.06912 4.01 0.94912 3.73C0.83912 3.45 0.78412 3.13 0.78412 2.77C0.78412 2.38 0.86412 2.02 1.02412 1.69C1.19412 1.35 1.42412 1.055 1.71412 0.804999C2.00412 0.555 2.34912 0.36 2.74912 0.22C3.15912 0.0799999 3.60412 0.00999987 4.08412 0.00999987C4.65412 0.00999987 5.20412 0.125 5.73412 0.355C6.26412 0.574999 6.71912 0.874999 7.09912 1.255L6.21412 2.365C5.89412 2.105 5.56412 1.9 5.22412 1.75C4.88412 1.6 4.50412 1.525 4.08412 1.525C3.61412 1.525 3.23912 1.63 2.95912 1.84C2.67912 2.04 2.53912 2.32 2.53912 2.68C2.53912 2.87 2.57912 3.035 2.65912 3.175C2.74912 3.305 2.86412 3.425 3.00412 3.535C3.15412 3.635 3.32412 3.73 3.51412 3.82C3.70412 3.9 3.89912 3.98 4.09912 4.06L5.43412 4.615C5.72412 4.735 5.98912 4.875 6.22912 5.035C6.46912 5.195 6.67412 5.38 6.84412 5.59C7.02412 5.8 7.16412 6.045 7.26412 6.325C7.36412 6.595 7.41412 6.91 7.41412 7.27C7.41412 7.67 7.33412 8.045 7.17412 8.395C7.01412 8.745 6.77912 9.055 6.46912 9.325C6.16912 9.585 5.79912 9.795 5.35912 9.955C4.92912 10.105 4.43912 10.18 3.88912 10.18ZM9.19795 10V0.189999H10.9379V10H9.19795ZM17.5413 10.18C16.8813 10.18 16.2663 10.07 15.6963 9.85C15.1363 9.63 14.6463 9.305 14.2263 8.875C13.8163 8.445 13.4963 7.915 13.2663 7.285C13.0363 6.655 12.9213 5.935 12.9213 5.125C12.9213 4.325 13.0413 3.61 13.2813 2.98C13.5213 2.34 13.8463 1.8 14.2563 1.36C14.6763 0.92 15.1663 0.585 15.7263 0.355C16.2963 0.125 16.9063 0.00999987 17.5563 0.00999987C18.2563 0.00999987 18.8463 0.14 19.3263 0.399999C19.8163 0.65 20.2163 0.935 20.5263 1.255L19.5963 2.38C19.3463 2.14 19.0663 1.94 18.7563 1.78C18.4563 1.61 18.0763 1.525 17.6163 1.525C17.1763 1.525 16.7763 1.61 16.4163 1.78C16.0663 1.94 15.7613 2.175 15.5013 2.485C15.2513 2.785 15.0563 3.155 14.9163 3.595C14.7763 4.035 14.7063 4.53 14.7063 5.08C14.7063 6.2 14.9563 7.08 15.4563 7.72C15.9663 8.35 16.7163 8.665 17.7063 8.665C17.9863 8.665 18.2513 8.63 18.5013 8.56C18.7513 8.48 18.9563 8.37 19.1163 8.23V6.115H17.2563V4.69H20.6763V9.01C20.3463 9.34 19.9063 9.62 19.3563 9.85C18.8163 10.07 18.2113 10.18 17.5413 10.18ZM22.8503 10V0.189999H24.6353L27.6953 5.71L28.7003 7.795H28.7603C28.7203 7.285 28.6703 6.74 28.6103 6.16C28.5603 5.57 28.5353 5 28.5353 4.45V0.189999H30.2003V10H28.4153L25.3553 4.48L24.3503 2.395H24.2903C24.3303 2.915 24.3753 3.46 24.4253 4.03C24.4853 4.6 24.5153 5.16 24.5153 5.71V10H22.8503ZM39.372 10.18C38.802 10.18 38.287 10.1 37.827 9.94C37.377 9.77 36.987 9.505 36.657 9.145C36.337 8.785 36.087 8.325 35.907 7.765C35.737 7.195 35.652 6.505 35.652 5.695V0.189999H37.392V5.83C37.392 6.36 37.437 6.81 37.527 7.18C37.627 7.54 37.762 7.83 37.932 8.05C38.112 8.27 38.322 8.43 38.562 8.53C38.802 8.62 39.072 8.665 39.372 8.665C39.672 8.665 39.947 8.62 40.197 8.53C40.447 8.43 40.662 8.27 40.842 8.05C41.022 7.83 41.162 7.54 41.262 7.18C41.362 6.81 41.412 6.36 41.412 5.83V0.189999H43.077V5.695C43.077 6.505 42.992 7.195 42.822 7.765C42.652 8.325 42.402 8.785 42.072 9.145C41.752 9.505 41.362 9.77 40.902 9.94C40.452 10.1 39.942 10.18 39.372 10.18ZM45.5261 10V0.189999H48.6161C49.1561 0.189999 49.6561 0.239999 50.1161 0.339999C50.5861 0.44 50.9911 0.61 51.3311 0.85C51.6711 1.09 51.9361 1.405 52.1261 1.795C52.3161 2.175 52.4111 2.65 52.4111 3.22C52.4111 3.76 52.3161 4.23 52.1261 4.63C51.9361 5.03 51.6711 5.365 51.3311 5.635C51.0011 5.895 50.6061 6.09 50.1461 6.22C49.6961 6.34 49.2061 6.4 48.6761 6.4H47.2661V10H45.5261ZM47.2661 5.005H48.5411C49.9811 5.005 50.7011 4.41 50.7011 3.22C50.7011 2.6 50.5111 2.175 50.1311 1.945C49.7611 1.705 49.2111 1.585 48.4811 1.585H47.2661V5.005Z" fill="#250F8A"/>
</svg>
