<svg width="41" height="11" viewBox="0 0 41 11" fill="none" xmlns="http://www.w3.org/2000/svg">
<path opacity="0.5" d="M2.78348 10L0.833477 0.189999H2.61848L3.47348 5.14C3.55348 5.67 3.63348 6.195 3.71348 6.715C3.79348 7.235 3.87348 7.755 3.95348 8.275H4.01348C4.12348 7.755 4.22848 7.235 4.32848 6.715C4.43848 6.185 4.54848 5.66 4.65848 5.14L5.85848 0.189999H7.37348L8.57348 5.14C8.68348 5.65 8.79348 6.17 8.90348 6.7C9.01348 7.22 9.12348 7.745 9.23348 8.275H9.29348C9.37348 7.745 9.44848 7.22 9.51848 6.7C9.59848 6.18 9.67848 5.66 9.75848 5.14L10.6135 0.189999H12.2785L10.4035 10H8.24348L7.02848 4.84C6.94848 4.46 6.86848 4.085 6.78848 3.715C6.71848 3.335 6.65348 2.955 6.59348 2.575H6.53348C6.46348 2.955 6.38848 3.335 6.30848 3.715C6.23848 4.085 6.16348 4.46 6.08348 4.84L4.89848 10H2.78348ZM17.557 10.18C16.917 10.18 16.332 10.065 15.802 9.835C15.272 9.595 14.817 9.255 14.437 8.815C14.057 8.365 13.762 7.825 13.552 7.195C13.342 6.565 13.237 5.85 13.237 5.05C13.237 4.26 13.342 3.555 13.552 2.935C13.762 2.305 14.057 1.775 14.437 1.345C14.817 0.915 15.272 0.585 15.802 0.355C16.332 0.125 16.917 0.00999987 17.557 0.00999987C18.197 0.00999987 18.782 0.125 19.312 0.355C19.842 0.585 20.297 0.915 20.677 1.345C21.067 1.775 21.367 2.305 21.577 2.935C21.787 3.555 21.892 4.26 21.892 5.05C21.892 5.85 21.787 6.565 21.577 7.195C21.367 7.825 21.067 8.365 20.677 8.815C20.297 9.255 19.842 9.595 19.312 9.835C18.782 10.065 18.197 10.18 17.557 10.18ZM17.557 8.665C17.947 8.665 18.297 8.58 18.607 8.41C18.917 8.24 19.182 8 19.402 7.69C19.622 7.37 19.792 6.99 19.912 6.55C20.032 6.1 20.092 5.6 20.092 5.05C20.092 3.95 19.862 3.09 19.402 2.47C18.952 1.84 18.337 1.525 17.557 1.525C16.777 1.525 16.157 1.84 15.697 2.47C15.247 3.09 15.022 3.95 15.022 5.05C15.022 5.6 15.082 6.1 15.202 6.55C15.322 6.99 15.492 7.37 15.712 7.69C15.932 8 16.197 8.24 16.507 8.41C16.817 8.58 17.167 8.665 17.557 8.665ZM23.8544 10V0.189999H27.1694C27.6794 0.189999 28.1544 0.239999 28.5944 0.339999C29.0344 0.44 29.4144 0.605 29.7344 0.835C30.0544 1.055 30.3044 1.35 30.4844 1.72C30.6744 2.09 30.7694 2.55 30.7694 3.1C30.7694 3.85 30.5894 4.455 30.2294 4.915C29.8794 5.375 29.4094 5.705 28.8194 5.905L31.1594 10H29.2094L27.0944 6.16H25.5944V10H23.8544ZM25.5944 4.78H26.9894C27.6594 4.78 28.1694 4.64 28.5194 4.36C28.8794 4.08 29.0594 3.66 29.0594 3.1C29.0594 2.53 28.8794 2.135 28.5194 1.915C28.1694 1.695 27.6594 1.585 26.9894 1.585H25.5944V4.78ZM32.7313 10V0.189999H34.4713V4.645H34.5163L38.0113 0.189999H39.9463L36.9313 4.015L40.4563 10H38.5363L35.8813 5.38L34.4713 7.135V10H32.7313Z" fill="white"/>
</svg>
